<mxfile host="app.diagrams.net" modified="2024-05-26T10:56:16.421Z" agent="Mozilla/5.0 (Macintosh; Intel Mac OS X 10_15_7) AppleWebKit/537.36 (KHTML, like Gecko) Chrome/124.0.0.0 Safari/537.36" etag="YcHEDhKwMLnXe3pF7gAg" version="24.4.8" type="github">
  <diagram name="第 1 页" id="1gqUp_J3Z3mMkTYO-Q9c">
    <mxGraphModel dx="1194" dy="650" grid="1" gridSize="10" guides="1" tooltips="1" connect="1" arrows="1" fold="1" page="1" pageScale="1" pageWidth="827" pageHeight="1169" math="0" shadow="0">
      <root>
        <mxCell id="0" />
        <mxCell id="1" parent="0" />
        <mxCell id="O3hRBY9sVsEaB4L0y2fi-1" value="&lt;font style=&quot;font-size: 50px;&quot;&gt;2&lt;/font&gt;" style="ellipse;whiteSpace=wrap;html=1;aspect=fixed;" vertex="1" parent="1">
          <mxGeometry x="270" y="150" width="80" height="80" as="geometry" />
        </mxCell>
        <mxCell id="O3hRBY9sVsEaB4L0y2fi-2" value="&lt;font style=&quot;font-size: 50px;&quot;&gt;3&lt;/font&gt;" style="ellipse;whiteSpace=wrap;html=1;aspect=fixed;" vertex="1" parent="1">
          <mxGeometry x="350" y="250" width="80" height="80" as="geometry" />
        </mxCell>
        <mxCell id="O3hRBY9sVsEaB4L0y2fi-3" value="&lt;font style=&quot;font-size: 50px;&quot;&gt;1&lt;/font&gt;" style="ellipse;whiteSpace=wrap;html=1;aspect=fixed;" vertex="1" parent="1">
          <mxGeometry x="190" y="250" width="80" height="80" as="geometry" />
        </mxCell>
        <mxCell id="O3hRBY9sVsEaB4L0y2fi-4" value="" style="endArrow=none;html=1;rounded=0;entryX=0;entryY=1;entryDx=0;entryDy=0;exitX=0.713;exitY=0.038;exitDx=0;exitDy=0;exitPerimeter=0;" edge="1" parent="1" source="O3hRBY9sVsEaB4L0y2fi-3" target="O3hRBY9sVsEaB4L0y2fi-1">
          <mxGeometry width="50" height="50" relative="1" as="geometry">
            <mxPoint x="620" y="340" as="sourcePoint" />
            <mxPoint x="670" y="290" as="targetPoint" />
          </mxGeometry>
        </mxCell>
        <mxCell id="O3hRBY9sVsEaB4L0y2fi-6" value="" style="endArrow=none;html=1;rounded=0;entryX=1;entryY=1;entryDx=0;entryDy=0;" edge="1" parent="1" source="O3hRBY9sVsEaB4L0y2fi-2" target="O3hRBY9sVsEaB4L0y2fi-1">
          <mxGeometry width="50" height="50" relative="1" as="geometry">
            <mxPoint x="620" y="340" as="sourcePoint" />
            <mxPoint x="670" y="290" as="targetPoint" />
          </mxGeometry>
        </mxCell>
        <mxCell id="O3hRBY9sVsEaB4L0y2fi-7" value="&lt;font style=&quot;font-size: 50px;&quot;&gt;2&lt;/font&gt;" style="ellipse;whiteSpace=wrap;html=1;aspect=fixed;" vertex="1" parent="1">
          <mxGeometry x="280" y="390" width="80" height="80" as="geometry" />
        </mxCell>
        <mxCell id="O3hRBY9sVsEaB4L0y2fi-8" value="&lt;font style=&quot;font-size: 50px;&quot;&gt;3&lt;/font&gt;" style="ellipse;whiteSpace=wrap;html=1;aspect=fixed;" vertex="1" parent="1">
          <mxGeometry x="190" y="500" width="80" height="80" as="geometry" />
        </mxCell>
        <mxCell id="O3hRBY9sVsEaB4L0y2fi-9" value="&lt;font style=&quot;font-size: 50px;&quot;&gt;1&lt;/font&gt;" style="ellipse;whiteSpace=wrap;html=1;aspect=fixed;" vertex="1" parent="1">
          <mxGeometry x="120" y="610" width="80" height="80" as="geometry" />
        </mxCell>
        <mxCell id="O3hRBY9sVsEaB4L0y2fi-10" value="" style="endArrow=none;html=1;rounded=0;entryX=0;entryY=1;entryDx=0;entryDy=0;exitX=0.813;exitY=0.063;exitDx=0;exitDy=0;exitPerimeter=0;" edge="1" source="O3hRBY9sVsEaB4L0y2fi-8" target="O3hRBY9sVsEaB4L0y2fi-7" parent="1">
          <mxGeometry width="50" height="50" relative="1" as="geometry">
            <mxPoint x="240" y="530" as="sourcePoint" />
            <mxPoint x="680" y="530" as="targetPoint" />
          </mxGeometry>
        </mxCell>
        <mxCell id="O3hRBY9sVsEaB4L0y2fi-11" value="" style="endArrow=none;html=1;rounded=0;entryX=0.763;entryY=0.075;entryDx=0;entryDy=0;entryPerimeter=0;" edge="1" source="O3hRBY9sVsEaB4L0y2fi-8" target="O3hRBY9sVsEaB4L0y2fi-9" parent="1">
          <mxGeometry width="50" height="50" relative="1" as="geometry">
            <mxPoint x="630" y="580" as="sourcePoint" />
            <mxPoint x="680" y="530" as="targetPoint" />
          </mxGeometry>
        </mxCell>
        <mxCell id="O3hRBY9sVsEaB4L0y2fi-12" value="&lt;font style=&quot;font-size: 50px;&quot;&gt;2&lt;/font&gt;" style="ellipse;whiteSpace=wrap;html=1;aspect=fixed;" vertex="1" parent="1">
          <mxGeometry x="560" y="390" width="80" height="80" as="geometry" />
        </mxCell>
        <mxCell id="O3hRBY9sVsEaB4L0y2fi-13" value="&lt;font style=&quot;font-size: 50px;&quot;&gt;3&lt;/font&gt;" style="ellipse;whiteSpace=wrap;html=1;aspect=fixed;" vertex="1" parent="1">
          <mxGeometry x="660" y="505" width="80" height="80" as="geometry" />
        </mxCell>
        <mxCell id="O3hRBY9sVsEaB4L0y2fi-14" value="&lt;font style=&quot;font-size: 50px;&quot;&gt;1&lt;/font&gt;" style="ellipse;whiteSpace=wrap;html=1;aspect=fixed;" vertex="1" parent="1">
          <mxGeometry x="720" y="620" width="80" height="80" as="geometry" />
        </mxCell>
        <mxCell id="O3hRBY9sVsEaB4L0y2fi-15" value="" style="endArrow=none;html=1;rounded=0;entryX=1;entryY=1;entryDx=0;entryDy=0;exitX=0.2;exitY=0.075;exitDx=0;exitDy=0;exitPerimeter=0;" edge="1" source="O3hRBY9sVsEaB4L0y2fi-13" target="O3hRBY9sVsEaB4L0y2fi-12" parent="1">
          <mxGeometry width="50" height="50" relative="1" as="geometry">
            <mxPoint x="540" y="530" as="sourcePoint" />
            <mxPoint x="980" y="530" as="targetPoint" />
          </mxGeometry>
        </mxCell>
        <mxCell id="O3hRBY9sVsEaB4L0y2fi-16" value="" style="endArrow=none;html=1;rounded=0;entryX=0.413;entryY=-0.062;entryDx=0;entryDy=0;entryPerimeter=0;" edge="1" source="O3hRBY9sVsEaB4L0y2fi-13" target="O3hRBY9sVsEaB4L0y2fi-14" parent="1">
          <mxGeometry width="50" height="50" relative="1" as="geometry">
            <mxPoint x="930" y="580" as="sourcePoint" />
            <mxPoint x="980" y="530" as="targetPoint" />
          </mxGeometry>
        </mxCell>
      </root>
    </mxGraphModel>
  </diagram>
</mxfile>
